<svg width="74" height="72" viewBox="0 0 74 72" fill="none" xmlns="http://www.w3.org/2000/svg">
<g clip-path="url(#clip0_20_258)">
<path fill-rule="evenodd" clip-rule="evenodd" d="M26.2436 6.39613C28.2176 6.39656 30.1106 7.16222 31.5064 8.52477C32.9023 9.88732 33.6866 11.7352 33.6871 13.6621V63.3321C33.6864 64.1348 33.3595 64.9044 32.7782 65.4721C32.1968 66.0398 31.4085 66.3591 30.5862 66.3599H23.7627C22.9403 66.3593 22.1517 66.0401 21.5701 65.4724C20.9886 64.9047 20.6616 64.1349 20.6609 63.3321V22.0163C20.6603 21.2135 20.3333 20.4437 19.7518 19.876C19.1702 19.3084 18.3816 18.9892 17.5592 18.9885H16.3184C15.4959 18.9892 14.7074 19.3084 14.1258 19.876C13.5443 20.4437 13.2173 21.2135 13.2166 22.0163V63.3321C13.216 64.1348 12.8891 64.9044 12.3077 65.4721C11.7263 66.0398 10.938 66.3591 10.1157 66.3599H3.29222C2.46979 66.3593 1.68123 66.0401 1.09969 65.4724C0.518139 64.9047 0.191141 64.1349 0.190491 63.3321L0.190491 9.4239C0.191141 8.62108 0.518139 7.85133 1.09969 7.28365C1.68123 6.71597 2.46979 6.39677 3.29222 6.39613H26.2436ZM66.4605 6.39613C68.4346 6.39635 70.3279 7.16191 71.7239 8.52448C73.1199 9.88706 73.9043 11.7351 73.9048 13.6621V26.1602C73.9046 26.8024 73.6431 27.4183 73.1779 27.8724C72.7127 28.3265 72.0818 28.5817 71.4239 28.5819H62.7387C62.0808 28.5817 61.4499 28.3265 60.9847 27.8724C60.5195 27.4183 60.258 26.8024 60.2578 26.1602V20.805C60.2578 19.8016 59.4248 18.9885 58.3969 18.9885H55.2952C54.2673 18.9885 53.4343 19.8016 53.4343 20.805V51.9566C53.4343 52.6258 53.9896 53.1679 54.6752 53.1679H59.6378C60.3233 53.1679 60.8786 52.6258 60.8786 51.9566V45.9722H59.6378C58.9799 45.972 58.349 45.7168 57.8838 45.2627C57.4186 44.8086 57.1571 44.1927 57.1569 43.5505V35.8024C57.1571 35.1601 57.4186 34.5443 57.8838 34.0902C58.349 33.6361 58.9799 33.3808 59.6378 33.3806H71.4239C72.0816 33.3808 72.7124 33.6359 73.1776 34.0899C73.6428 34.5438 73.9043 35.1595 73.9048 35.8016V59.0931C73.9046 61.0202 73.1203 62.8683 71.7244 64.231C70.3286 65.5937 68.4354 66.3595 66.4613 66.3599H47.8517C45.8777 66.3595 43.9847 65.5938 42.5888 64.2313C41.193 62.8687 40.4086 61.0208 40.4082 59.0939V13.6621C40.4086 11.7352 41.193 9.88732 42.5888 8.52477C43.9847 7.16222 45.8777 6.39656 47.8517 6.39613H66.4605Z" fill="black"/>
</g>
<defs>
<clipPath id="clip0_20_258">
<rect width="73.7143" height="71.9565" fill="white" transform="translate(0.190491)"/>
</clipPath>
</defs>
</svg>
